<mxfile host="app.diagrams.net" agent="Mozilla/5.0 (Windows NT 10.0; Win64; x64) AppleWebKit/537.36 (KHTML, like Gecko) Chrome/131.0.0.0 Safari/537.36" version="26.0.4">
  <diagram name="Page-1" id="1-cFaJnFDjHYAvsiDnYj">
    <mxGraphModel dx="828" dy="549" grid="1" gridSize="10" guides="1" tooltips="1" connect="1" arrows="1" fold="1" page="1" pageScale="1" pageWidth="850" pageHeight="1100" math="0" shadow="0">
      <root>
        <mxCell id="0" />
        <mxCell id="1" parent="0" />
        <mxCell id="TZnY_ZwAf_DfWxbRwsDl-1" value="" style="rounded=1;whiteSpace=wrap;html=1;strokeColor=#475E75;fillColor=#F5F6F7;arcSize=24;absoluteArcSize=1;imageWidth=64;imageHeight=64;strokeWidth=1.5;" vertex="1" parent="1">
          <mxGeometry x="40" y="140" width="760" height="360" as="geometry" />
        </mxCell>
        <mxCell id="TZnY_ZwAf_DfWxbRwsDl-2" value="&lt;b&gt;KobrA-Realization Models&lt;/b&gt;" style="text;fontSize=16;verticalAlign=middle;strokeColor=none;fillColor=none;whiteSpace=wrap;html=1;" vertex="1" parent="1">
          <mxGeometry x="40" y="40" width="346" height="30" as="geometry" />
        </mxCell>
        <mxCell id="TZnY_ZwAf_DfWxbRwsDl-3" value="" style="dashed=0;shape=line;strokeWidth=2;noLabel=1;strokeColor=#0C8CF2;opacity=50;" vertex="1" parent="1">
          <mxGeometry x="40" y="65" width="346" height="10" as="geometry" />
        </mxCell>
        <mxCell id="TZnY_ZwAf_DfWxbRwsDl-7" value="&lt;b&gt;Structural Model&lt;/b&gt;" style="rounded=1;whiteSpace=wrap;html=1;strokeWidth=1.5;arcSize=16;perimeterSpacing=0;absoluteArcSize=1;" vertex="1" parent="1">
          <mxGeometry x="50" y="150" width="130" height="30" as="geometry" />
        </mxCell>
        <mxCell id="TZnY_ZwAf_DfWxbRwsDl-8" value="" style="rounded=1;whiteSpace=wrap;html=1;strokeColor=#475E75;fillColor=#F5F6F7;arcSize=24;absoluteArcSize=1;imageWidth=64;imageHeight=64;strokeWidth=1.5;" vertex="1" parent="1">
          <mxGeometry x="40" y="1163" width="760" height="707" as="geometry" />
        </mxCell>
        <mxCell id="TZnY_ZwAf_DfWxbRwsDl-9" value="&lt;b&gt;Activity Model&lt;/b&gt;" style="rounded=1;whiteSpace=wrap;html=1;strokeWidth=1.5;arcSize=16;perimeterSpacing=0;absoluteArcSize=1;" vertex="1" parent="1">
          <mxGeometry x="50" y="1173" width="130" height="30" as="geometry" />
        </mxCell>
        <mxCell id="TZnY_ZwAf_DfWxbRwsDl-32" value="" style="group;glass=0;shadow=0;fillColor=none;" vertex="1" connectable="0" parent="1">
          <mxGeometry x="650" y="1183" width="130" height="90" as="geometry" />
        </mxCell>
        <mxCell id="TZnY_ZwAf_DfWxbRwsDl-33" value="" style="shape=parallelogram;html=1;strokeWidth=1;perimeter=parallelogramPerimeter;whiteSpace=wrap;rounded=1;arcSize=12;size=0.23;shadow=0;" vertex="1" parent="TZnY_ZwAf_DfWxbRwsDl-32">
          <mxGeometry x="92.85714285714286" y="24" width="37.142857142857146" height="12" as="geometry" />
        </mxCell>
        <mxCell id="TZnY_ZwAf_DfWxbRwsDl-34" value="" style="shape=parallelogram;html=1;strokeWidth=1;perimeter=parallelogramPerimeter;whiteSpace=wrap;rounded=1;arcSize=12;size=0.23;shadow=0;" vertex="1" parent="TZnY_ZwAf_DfWxbRwsDl-32">
          <mxGeometry x="49.523809523809526" width="37.142857142857146" height="12" as="geometry" />
        </mxCell>
        <mxCell id="TZnY_ZwAf_DfWxbRwsDl-35" value="" style="shape=parallelogram;html=1;strokeWidth=1;perimeter=parallelogramPerimeter;whiteSpace=wrap;rounded=1;arcSize=12;size=0.23;shadow=0;" vertex="1" parent="TZnY_ZwAf_DfWxbRwsDl-32">
          <mxGeometry y="24" width="37.142857142857146" height="12" as="geometry" />
        </mxCell>
        <mxCell id="TZnY_ZwAf_DfWxbRwsDl-36" value="" style="edgeStyle=isometricEdgeStyle;endArrow=none;html=1;elbow=vertical;rounded=0;entryX=1;entryY=0.5;entryDx=0;entryDy=0;exitX=1;exitY=0.5;exitDx=0;exitDy=0;" edge="1" parent="TZnY_ZwAf_DfWxbRwsDl-32" source="TZnY_ZwAf_DfWxbRwsDl-34" target="TZnY_ZwAf_DfWxbRwsDl-34">
          <mxGeometry width="50" height="100" relative="1" as="geometry">
            <mxPoint x="89.76190476190476" y="72" as="sourcePoint" />
            <mxPoint x="120.71428571428572" y="12" as="targetPoint" />
            <Array as="points" />
          </mxGeometry>
        </mxCell>
        <mxCell id="TZnY_ZwAf_DfWxbRwsDl-37" value="" style="endArrow=open;html=1;rounded=0;endSize=2;entryX=1;entryY=0.5;entryDx=0;entryDy=0;exitX=0.598;exitY=-0.024;exitDx=0;exitDy=0;exitPerimeter=0;startArrow=open;startFill=0;endFill=0;startSize=2;" edge="1" parent="TZnY_ZwAf_DfWxbRwsDl-32" source="TZnY_ZwAf_DfWxbRwsDl-33" target="TZnY_ZwAf_DfWxbRwsDl-34">
          <mxGeometry width="50" height="50" relative="1" as="geometry">
            <mxPoint x="117.61904761904762" y="30" as="sourcePoint" />
            <mxPoint x="94.77619047619042" y="12" as="targetPoint" />
            <Array as="points">
              <mxPoint x="123.80952380952381" y="6" />
            </Array>
          </mxGeometry>
        </mxCell>
        <mxCell id="TZnY_ZwAf_DfWxbRwsDl-38" value="" style="endArrow=open;html=1;rounded=0;endSize=2;entryX=0;entryY=0.5;entryDx=0;entryDy=0;exitX=0.5;exitY=0;exitDx=0;exitDy=0;strokeColor=default;align=center;verticalAlign=middle;fontFamily=Helvetica;fontSize=11;fontColor=default;labelBackgroundColor=default;startArrow=open;startFill=0;startSize=2;endFill=0;" edge="1" parent="TZnY_ZwAf_DfWxbRwsDl-32" source="TZnY_ZwAf_DfWxbRwsDl-35" target="TZnY_ZwAf_DfWxbRwsDl-34">
          <mxGeometry width="50" height="50" relative="1" as="geometry">
            <mxPoint x="59.42857142857143" y="24" as="sourcePoint" />
            <mxPoint x="51.38095238095238" y="12" as="targetPoint" />
            <Array as="points">
              <mxPoint x="30.952380952380953" y="6" />
            </Array>
          </mxGeometry>
        </mxCell>
        <mxCell id="TZnY_ZwAf_DfWxbRwsDl-39" value="" style="shape=cube;whiteSpace=wrap;html=1;boundedLbl=1;backgroundOutline=1;darkOpacity=0.05;darkOpacity2=0.1;size=10;shadow=1;" vertex="1" parent="TZnY_ZwAf_DfWxbRwsDl-32">
          <mxGeometry x="52.61904761904762" y="25.2" width="24.761904761904763" height="36" as="geometry" />
        </mxCell>
        <mxCell id="TZnY_ZwAf_DfWxbRwsDl-40" value="" style="endArrow=block;html=1;rounded=0;exitX=0.475;exitY=0.969;exitDx=0;exitDy=0;exitPerimeter=0;entryX=0.332;entryY=-0.012;entryDx=0;entryDy=0;entryPerimeter=0;endSize=2;strokeColor=default;align=center;verticalAlign=middle;fontFamily=Helvetica;fontSize=11;fontColor=default;labelBackgroundColor=default;endFill=1;" edge="1" parent="TZnY_ZwAf_DfWxbRwsDl-32" source="TZnY_ZwAf_DfWxbRwsDl-34" target="TZnY_ZwAf_DfWxbRwsDl-39">
          <mxGeometry width="50" height="50" relative="1" as="geometry">
            <mxPoint x="74.28571428571429" y="78" as="sourcePoint" />
            <mxPoint x="105.23809523809524" y="48" as="targetPoint" />
          </mxGeometry>
        </mxCell>
        <mxCell id="TZnY_ZwAf_DfWxbRwsDl-41" value="" style="endArrow=block;html=1;rounded=0;exitX=0;exitY=0.25;exitDx=0;exitDy=0;entryX=0.753;entryY=0.083;entryDx=0;entryDy=0;entryPerimeter=0;endSize=2;strokeColor=default;align=center;verticalAlign=middle;fontFamily=Helvetica;fontSize=11;fontColor=default;labelBackgroundColor=default;endFill=1;" edge="1" parent="TZnY_ZwAf_DfWxbRwsDl-32" source="TZnY_ZwAf_DfWxbRwsDl-33" target="TZnY_ZwAf_DfWxbRwsDl-39">
          <mxGeometry width="50" height="50" relative="1" as="geometry">
            <mxPoint x="71.19047619047619" y="18" as="sourcePoint" />
            <mxPoint x="71.19047619047619" y="30" as="targetPoint" />
          </mxGeometry>
        </mxCell>
        <mxCell id="TZnY_ZwAf_DfWxbRwsDl-42" value="" style="endArrow=block;html=1;rounded=0;exitX=0.93;exitY=0.361;exitDx=0;exitDy=0;entryX=-0.052;entryY=0.085;entryDx=0;entryDy=0;entryPerimeter=0;endSize=2;exitPerimeter=0;endFill=1;" edge="1" parent="TZnY_ZwAf_DfWxbRwsDl-32" source="TZnY_ZwAf_DfWxbRwsDl-35" target="TZnY_ZwAf_DfWxbRwsDl-39">
          <mxGeometry width="50" height="50" relative="1" as="geometry">
            <mxPoint x="104.61904761904762" y="34.199999999999996" as="sourcePoint" />
            <mxPoint x="83.57142857142857" y="34.199999999999996" as="targetPoint" />
          </mxGeometry>
        </mxCell>
        <mxCell id="TZnY_ZwAf_DfWxbRwsDl-43" value="" style="shape=parallelogram;html=1;strokeWidth=1;perimeter=parallelogramPerimeter;whiteSpace=wrap;rounded=1;arcSize=12;size=0.23;shadow=1;" vertex="1" parent="TZnY_ZwAf_DfWxbRwsDl-32">
          <mxGeometry x="86.66666666666667" y="54" width="37.142857142857146" height="12" as="geometry" />
        </mxCell>
        <mxCell id="TZnY_ZwAf_DfWxbRwsDl-44" value="" style="shape=parallelogram;html=1;strokeWidth=1;perimeter=parallelogramPerimeter;whiteSpace=wrap;rounded=1;arcSize=12;size=0.23;shadow=1;strokeColor=#000000;fillColor=#000000;" vertex="1" parent="TZnY_ZwAf_DfWxbRwsDl-32">
          <mxGeometry x="24.761904761904763" y="78" width="37.142857142857146" height="12" as="geometry" />
        </mxCell>
        <mxCell id="TZnY_ZwAf_DfWxbRwsDl-45" value="" style="shape=parallelogram;html=1;strokeWidth=1;perimeter=parallelogramPerimeter;whiteSpace=wrap;rounded=1;arcSize=12;size=0.23;shadow=1;" vertex="1" parent="TZnY_ZwAf_DfWxbRwsDl-32">
          <mxGeometry y="54" width="37.142857142857146" height="12" as="geometry" />
        </mxCell>
        <mxCell id="TZnY_ZwAf_DfWxbRwsDl-46" value="" style="edgeStyle=isometricEdgeStyle;endArrow=none;html=1;elbow=vertical;rounded=0;entryX=1;entryY=0.5;entryDx=0;entryDy=0;exitX=1;exitY=0.5;exitDx=0;exitDy=0;" edge="1" parent="TZnY_ZwAf_DfWxbRwsDl-32" source="TZnY_ZwAf_DfWxbRwsDl-44" target="TZnY_ZwAf_DfWxbRwsDl-44">
          <mxGeometry width="50" height="100" relative="1" as="geometry">
            <mxPoint x="83.57142857142857" y="102" as="sourcePoint" />
            <mxPoint x="114.52380952380953" y="42" as="targetPoint" />
            <Array as="points" />
          </mxGeometry>
        </mxCell>
        <mxCell id="TZnY_ZwAf_DfWxbRwsDl-47" value="" style="endArrow=open;html=1;rounded=0;endSize=2;entryX=1;entryY=0.5;entryDx=0;entryDy=0;exitX=0.421;exitY=1.024;exitDx=0;exitDy=0;exitPerimeter=0;strokeColor=default;align=center;verticalAlign=middle;fontFamily=Helvetica;fontSize=11;fontColor=default;labelBackgroundColor=default;startArrow=open;startFill=0;startSize=2;endFill=0;" edge="1" parent="TZnY_ZwAf_DfWxbRwsDl-32" source="TZnY_ZwAf_DfWxbRwsDl-43" target="TZnY_ZwAf_DfWxbRwsDl-44">
          <mxGeometry width="50" height="50" relative="1" as="geometry">
            <mxPoint x="111.42857142857143" y="60" as="sourcePoint" />
            <mxPoint x="88.58571428571423" y="42" as="targetPoint" />
            <Array as="points">
              <mxPoint x="92.85714285714286" y="84" />
            </Array>
          </mxGeometry>
        </mxCell>
        <mxCell id="TZnY_ZwAf_DfWxbRwsDl-48" value="" style="endArrow=open;html=1;rounded=0;endSize=2;entryX=0;entryY=0.5;entryDx=0;entryDy=0;exitX=0.405;exitY=1.002;exitDx=0;exitDy=0;exitPerimeter=0;strokeColor=default;align=center;verticalAlign=middle;fontFamily=Helvetica;fontSize=11;fontColor=default;labelBackgroundColor=default;startArrow=open;startFill=0;startSize=2;endFill=0;" edge="1" parent="TZnY_ZwAf_DfWxbRwsDl-32" source="TZnY_ZwAf_DfWxbRwsDl-45" target="TZnY_ZwAf_DfWxbRwsDl-44">
          <mxGeometry width="50" height="50" relative="1" as="geometry">
            <mxPoint x="53.23809523809524" y="54" as="sourcePoint" />
            <mxPoint x="45.19047619047619" y="42" as="targetPoint" />
            <Array as="points">
              <mxPoint y="84" />
            </Array>
          </mxGeometry>
        </mxCell>
        <mxCell id="TZnY_ZwAf_DfWxbRwsDl-49" value="" style="endArrow=block;html=1;rounded=0;exitX=0.605;exitY=-0.013;exitDx=0;exitDy=0;exitPerimeter=0;entryX=0.326;entryY=1.008;entryDx=0;entryDy=0;entryPerimeter=0;endSize=2;strokeColor=default;align=center;verticalAlign=middle;fontFamily=Helvetica;fontSize=11;fontColor=default;labelBackgroundColor=default;endFill=1;" edge="1" parent="TZnY_ZwAf_DfWxbRwsDl-32" source="TZnY_ZwAf_DfWxbRwsDl-44" target="TZnY_ZwAf_DfWxbRwsDl-39">
          <mxGeometry width="50" height="50" relative="1" as="geometry">
            <mxPoint x="68.0952380952381" y="108" as="sourcePoint" />
            <mxPoint x="58.80952380952381" y="55.199999999999996" as="targetPoint" />
          </mxGeometry>
        </mxCell>
        <mxCell id="TZnY_ZwAf_DfWxbRwsDl-50" value="" style="endArrow=block;html=1;rounded=0;exitX=0;exitY=0.25;exitDx=0;exitDy=0;endSize=2;entryX=1.006;entryY=0.917;entryDx=0;entryDy=0;entryPerimeter=0;strokeColor=default;align=center;verticalAlign=middle;fontFamily=Helvetica;fontSize=11;fontColor=default;labelBackgroundColor=default;endFill=1;" edge="1" parent="TZnY_ZwAf_DfWxbRwsDl-32" source="TZnY_ZwAf_DfWxbRwsDl-43" target="TZnY_ZwAf_DfWxbRwsDl-39">
          <mxGeometry width="50" height="50" relative="1" as="geometry">
            <mxPoint x="65" y="48" as="sourcePoint" />
            <mxPoint x="80.47619047619048" y="58.199999999999996" as="targetPoint" />
          </mxGeometry>
        </mxCell>
        <mxCell id="TZnY_ZwAf_DfWxbRwsDl-51" value="" style="endArrow=block;html=1;rounded=0;exitX=0.93;exitY=0.361;exitDx=0;exitDy=0;entryX=0.047;entryY=0.917;entryDx=0;entryDy=0;entryPerimeter=0;endSize=2;exitPerimeter=0;strokeColor=default;align=center;verticalAlign=middle;fontFamily=Helvetica;fontSize=11;fontColor=default;labelBackgroundColor=default;endFill=1;" edge="1" parent="TZnY_ZwAf_DfWxbRwsDl-32" source="TZnY_ZwAf_DfWxbRwsDl-45" target="TZnY_ZwAf_DfWxbRwsDl-39">
          <mxGeometry width="50" height="50" relative="1" as="geometry">
            <mxPoint x="98.42857142857143" y="64.2" as="sourcePoint" />
            <mxPoint x="48.285714285714285" y="58.199999999999996" as="targetPoint" />
          </mxGeometry>
        </mxCell>
        <mxCell id="TZnY_ZwAf_DfWxbRwsDl-52" value="" style="endArrow=open;startArrow=open;html=1;rounded=0;entryX=0.5;entryY=1;entryDx=0;entryDy=0;exitX=0.5;exitY=0;exitDx=0;exitDy=0;endSize=2;startSize=2;startFill=0;endFill=0;" edge="1" parent="TZnY_ZwAf_DfWxbRwsDl-32" source="TZnY_ZwAf_DfWxbRwsDl-45" target="TZnY_ZwAf_DfWxbRwsDl-35">
          <mxGeometry width="50" height="50" relative="1" as="geometry">
            <mxPoint x="12.380952380952381" y="60" as="sourcePoint" />
            <mxPoint x="43.333333333333336" y="30" as="targetPoint" />
          </mxGeometry>
        </mxCell>
        <mxCell id="TZnY_ZwAf_DfWxbRwsDl-53" value="" style="endArrow=open;startArrow=open;html=1;rounded=0;entryX=0.409;entryY=0.996;entryDx=0;entryDy=0;exitX=0.572;exitY=0.009;exitDx=0;exitDy=0;endSize=2;startSize=2;startFill=0;endFill=0;entryPerimeter=0;exitPerimeter=0;" edge="1" parent="TZnY_ZwAf_DfWxbRwsDl-32" source="TZnY_ZwAf_DfWxbRwsDl-43" target="TZnY_ZwAf_DfWxbRwsDl-33">
          <mxGeometry width="50" height="50" relative="1" as="geometry">
            <mxPoint x="111.31095238095239" y="54" as="sourcePoint" />
            <mxPoint x="111.31095238095239" y="36" as="targetPoint" />
          </mxGeometry>
        </mxCell>
        <mxCell id="TZnY_ZwAf_DfWxbRwsDl-54" value="" style="group;glass=0;shadow=0;" vertex="1" connectable="0" parent="1">
          <mxGeometry x="660" y="160" width="130" height="90" as="geometry" />
        </mxCell>
        <mxCell id="TZnY_ZwAf_DfWxbRwsDl-55" value="" style="shape=parallelogram;html=1;strokeWidth=1;perimeter=parallelogramPerimeter;whiteSpace=wrap;rounded=1;arcSize=12;size=0.23;shadow=0;" vertex="1" parent="TZnY_ZwAf_DfWxbRwsDl-54">
          <mxGeometry x="92.85714285714286" y="24" width="37.142857142857146" height="12" as="geometry" />
        </mxCell>
        <mxCell id="TZnY_ZwAf_DfWxbRwsDl-56" value="" style="shape=parallelogram;html=1;strokeWidth=1;perimeter=parallelogramPerimeter;whiteSpace=wrap;rounded=1;arcSize=12;size=0.23;shadow=0;" vertex="1" parent="TZnY_ZwAf_DfWxbRwsDl-54">
          <mxGeometry x="49.523809523809526" width="37.142857142857146" height="12" as="geometry" />
        </mxCell>
        <mxCell id="TZnY_ZwAf_DfWxbRwsDl-57" value="" style="shape=parallelogram;html=1;strokeWidth=1;perimeter=parallelogramPerimeter;whiteSpace=wrap;rounded=1;arcSize=12;size=0.23;shadow=0;" vertex="1" parent="TZnY_ZwAf_DfWxbRwsDl-54">
          <mxGeometry y="24" width="37.142857142857146" height="12" as="geometry" />
        </mxCell>
        <mxCell id="TZnY_ZwAf_DfWxbRwsDl-58" value="" style="edgeStyle=isometricEdgeStyle;endArrow=none;html=1;elbow=vertical;rounded=0;entryX=1;entryY=0.5;entryDx=0;entryDy=0;exitX=1;exitY=0.5;exitDx=0;exitDy=0;" edge="1" parent="TZnY_ZwAf_DfWxbRwsDl-54" source="TZnY_ZwAf_DfWxbRwsDl-56" target="TZnY_ZwAf_DfWxbRwsDl-56">
          <mxGeometry width="50" height="100" relative="1" as="geometry">
            <mxPoint x="89.76190476190476" y="72" as="sourcePoint" />
            <mxPoint x="120.71428571428572" y="12" as="targetPoint" />
            <Array as="points" />
          </mxGeometry>
        </mxCell>
        <mxCell id="TZnY_ZwAf_DfWxbRwsDl-59" value="" style="endArrow=open;html=1;rounded=0;endSize=2;entryX=1;entryY=0.5;entryDx=0;entryDy=0;exitX=0.598;exitY=-0.024;exitDx=0;exitDy=0;exitPerimeter=0;startArrow=open;startFill=0;endFill=0;startSize=2;" edge="1" parent="TZnY_ZwAf_DfWxbRwsDl-54" source="TZnY_ZwAf_DfWxbRwsDl-55" target="TZnY_ZwAf_DfWxbRwsDl-56">
          <mxGeometry width="50" height="50" relative="1" as="geometry">
            <mxPoint x="117.61904761904762" y="30" as="sourcePoint" />
            <mxPoint x="94.77619047619042" y="12" as="targetPoint" />
            <Array as="points">
              <mxPoint x="123.80952380952381" y="6" />
            </Array>
          </mxGeometry>
        </mxCell>
        <mxCell id="TZnY_ZwAf_DfWxbRwsDl-60" value="" style="endArrow=open;html=1;rounded=0;endSize=2;entryX=0;entryY=0.5;entryDx=0;entryDy=0;exitX=0.5;exitY=0;exitDx=0;exitDy=0;strokeColor=default;align=center;verticalAlign=middle;fontFamily=Helvetica;fontSize=11;fontColor=default;labelBackgroundColor=default;startArrow=open;startFill=0;startSize=2;endFill=0;" edge="1" parent="TZnY_ZwAf_DfWxbRwsDl-54" source="TZnY_ZwAf_DfWxbRwsDl-57" target="TZnY_ZwAf_DfWxbRwsDl-56">
          <mxGeometry width="50" height="50" relative="1" as="geometry">
            <mxPoint x="59.42857142857143" y="24" as="sourcePoint" />
            <mxPoint x="51.38095238095238" y="12" as="targetPoint" />
            <Array as="points">
              <mxPoint x="30.952380952380953" y="6" />
            </Array>
          </mxGeometry>
        </mxCell>
        <mxCell id="TZnY_ZwAf_DfWxbRwsDl-61" value="" style="shape=cube;whiteSpace=wrap;html=1;boundedLbl=1;backgroundOutline=1;darkOpacity=0.05;darkOpacity2=0.1;size=10;shadow=1;" vertex="1" parent="TZnY_ZwAf_DfWxbRwsDl-54">
          <mxGeometry x="52.61904761904762" y="25.2" width="24.761904761904763" height="36" as="geometry" />
        </mxCell>
        <mxCell id="TZnY_ZwAf_DfWxbRwsDl-62" value="" style="endArrow=block;html=1;rounded=0;exitX=0.475;exitY=0.969;exitDx=0;exitDy=0;exitPerimeter=0;entryX=0.332;entryY=-0.012;entryDx=0;entryDy=0;entryPerimeter=0;endSize=2;strokeColor=default;align=center;verticalAlign=middle;fontFamily=Helvetica;fontSize=11;fontColor=default;labelBackgroundColor=default;endFill=1;" edge="1" parent="TZnY_ZwAf_DfWxbRwsDl-54" source="TZnY_ZwAf_DfWxbRwsDl-56" target="TZnY_ZwAf_DfWxbRwsDl-61">
          <mxGeometry width="50" height="50" relative="1" as="geometry">
            <mxPoint x="74.28571428571429" y="78" as="sourcePoint" />
            <mxPoint x="105.23809523809524" y="48" as="targetPoint" />
          </mxGeometry>
        </mxCell>
        <mxCell id="TZnY_ZwAf_DfWxbRwsDl-63" value="" style="endArrow=block;html=1;rounded=0;exitX=0;exitY=0.25;exitDx=0;exitDy=0;entryX=0.753;entryY=0.083;entryDx=0;entryDy=0;entryPerimeter=0;endSize=2;strokeColor=default;align=center;verticalAlign=middle;fontFamily=Helvetica;fontSize=11;fontColor=default;labelBackgroundColor=default;endFill=1;" edge="1" parent="TZnY_ZwAf_DfWxbRwsDl-54" source="TZnY_ZwAf_DfWxbRwsDl-55" target="TZnY_ZwAf_DfWxbRwsDl-61">
          <mxGeometry width="50" height="50" relative="1" as="geometry">
            <mxPoint x="71.19047619047619" y="18" as="sourcePoint" />
            <mxPoint x="71.19047619047619" y="30" as="targetPoint" />
          </mxGeometry>
        </mxCell>
        <mxCell id="TZnY_ZwAf_DfWxbRwsDl-64" value="" style="endArrow=block;html=1;rounded=0;exitX=0.93;exitY=0.361;exitDx=0;exitDy=0;entryX=-0.052;entryY=0.085;entryDx=0;entryDy=0;entryPerimeter=0;endSize=2;exitPerimeter=0;endFill=1;" edge="1" parent="TZnY_ZwAf_DfWxbRwsDl-54" source="TZnY_ZwAf_DfWxbRwsDl-57" target="TZnY_ZwAf_DfWxbRwsDl-61">
          <mxGeometry width="50" height="50" relative="1" as="geometry">
            <mxPoint x="104.61904761904762" y="34.199999999999996" as="sourcePoint" />
            <mxPoint x="83.57142857142857" y="34.199999999999996" as="targetPoint" />
          </mxGeometry>
        </mxCell>
        <mxCell id="TZnY_ZwAf_DfWxbRwsDl-65" value="" style="shape=parallelogram;html=1;strokeWidth=1;perimeter=parallelogramPerimeter;whiteSpace=wrap;rounded=1;arcSize=12;size=0.23;shadow=1;fillColor=#000000;" vertex="1" parent="TZnY_ZwAf_DfWxbRwsDl-54">
          <mxGeometry x="86.66666666666667" y="54" width="37.142857142857146" height="12" as="geometry" />
        </mxCell>
        <mxCell id="TZnY_ZwAf_DfWxbRwsDl-66" value="" style="shape=parallelogram;html=1;strokeWidth=1;perimeter=parallelogramPerimeter;whiteSpace=wrap;rounded=1;arcSize=12;size=0.23;shadow=1;" vertex="1" parent="TZnY_ZwAf_DfWxbRwsDl-54">
          <mxGeometry x="24.761904761904763" y="78" width="37.142857142857146" height="12" as="geometry" />
        </mxCell>
        <mxCell id="TZnY_ZwAf_DfWxbRwsDl-67" value="" style="shape=parallelogram;html=1;strokeWidth=1;perimeter=parallelogramPerimeter;whiteSpace=wrap;rounded=1;arcSize=12;size=0.23;shadow=1;" vertex="1" parent="TZnY_ZwAf_DfWxbRwsDl-54">
          <mxGeometry y="54" width="37.142857142857146" height="12" as="geometry" />
        </mxCell>
        <mxCell id="TZnY_ZwAf_DfWxbRwsDl-68" value="" style="edgeStyle=isometricEdgeStyle;endArrow=none;html=1;elbow=vertical;rounded=0;entryX=1;entryY=0.5;entryDx=0;entryDy=0;exitX=1;exitY=0.5;exitDx=0;exitDy=0;" edge="1" parent="TZnY_ZwAf_DfWxbRwsDl-54" source="TZnY_ZwAf_DfWxbRwsDl-66" target="TZnY_ZwAf_DfWxbRwsDl-66">
          <mxGeometry width="50" height="100" relative="1" as="geometry">
            <mxPoint x="83.57142857142857" y="102" as="sourcePoint" />
            <mxPoint x="114.52380952380953" y="42" as="targetPoint" />
            <Array as="points" />
          </mxGeometry>
        </mxCell>
        <mxCell id="TZnY_ZwAf_DfWxbRwsDl-69" value="" style="endArrow=open;html=1;rounded=0;endSize=2;entryX=1;entryY=0.5;entryDx=0;entryDy=0;exitX=0.421;exitY=1.024;exitDx=0;exitDy=0;exitPerimeter=0;strokeColor=default;align=center;verticalAlign=middle;fontFamily=Helvetica;fontSize=11;fontColor=default;labelBackgroundColor=default;startArrow=open;startFill=0;startSize=2;endFill=0;" edge="1" parent="TZnY_ZwAf_DfWxbRwsDl-54" source="TZnY_ZwAf_DfWxbRwsDl-65" target="TZnY_ZwAf_DfWxbRwsDl-66">
          <mxGeometry width="50" height="50" relative="1" as="geometry">
            <mxPoint x="111.42857142857143" y="60" as="sourcePoint" />
            <mxPoint x="88.58571428571423" y="42" as="targetPoint" />
            <Array as="points">
              <mxPoint x="92.85714285714286" y="84" />
            </Array>
          </mxGeometry>
        </mxCell>
        <mxCell id="TZnY_ZwAf_DfWxbRwsDl-70" value="" style="endArrow=open;html=1;rounded=0;endSize=2;entryX=0;entryY=0.5;entryDx=0;entryDy=0;exitX=0.405;exitY=1.002;exitDx=0;exitDy=0;exitPerimeter=0;strokeColor=default;align=center;verticalAlign=middle;fontFamily=Helvetica;fontSize=11;fontColor=default;labelBackgroundColor=default;startArrow=open;startFill=0;startSize=2;endFill=0;" edge="1" parent="TZnY_ZwAf_DfWxbRwsDl-54" source="TZnY_ZwAf_DfWxbRwsDl-67" target="TZnY_ZwAf_DfWxbRwsDl-66">
          <mxGeometry width="50" height="50" relative="1" as="geometry">
            <mxPoint x="53.23809523809524" y="54" as="sourcePoint" />
            <mxPoint x="45.19047619047619" y="42" as="targetPoint" />
            <Array as="points">
              <mxPoint y="84" />
            </Array>
          </mxGeometry>
        </mxCell>
        <mxCell id="TZnY_ZwAf_DfWxbRwsDl-71" value="" style="endArrow=block;html=1;rounded=0;exitX=0.605;exitY=-0.013;exitDx=0;exitDy=0;exitPerimeter=0;entryX=0.326;entryY=1.008;entryDx=0;entryDy=0;entryPerimeter=0;endSize=2;strokeColor=default;align=center;verticalAlign=middle;fontFamily=Helvetica;fontSize=11;fontColor=default;labelBackgroundColor=default;endFill=1;" edge="1" parent="TZnY_ZwAf_DfWxbRwsDl-54" source="TZnY_ZwAf_DfWxbRwsDl-66" target="TZnY_ZwAf_DfWxbRwsDl-61">
          <mxGeometry width="50" height="50" relative="1" as="geometry">
            <mxPoint x="68.0952380952381" y="108" as="sourcePoint" />
            <mxPoint x="58.80952380952381" y="55.199999999999996" as="targetPoint" />
          </mxGeometry>
        </mxCell>
        <mxCell id="TZnY_ZwAf_DfWxbRwsDl-72" value="" style="endArrow=block;html=1;rounded=0;exitX=0;exitY=0.25;exitDx=0;exitDy=0;endSize=2;entryX=1.006;entryY=0.917;entryDx=0;entryDy=0;entryPerimeter=0;strokeColor=default;align=center;verticalAlign=middle;fontFamily=Helvetica;fontSize=11;fontColor=default;labelBackgroundColor=default;endFill=1;" edge="1" parent="TZnY_ZwAf_DfWxbRwsDl-54" source="TZnY_ZwAf_DfWxbRwsDl-65" target="TZnY_ZwAf_DfWxbRwsDl-61">
          <mxGeometry width="50" height="50" relative="1" as="geometry">
            <mxPoint x="65" y="48" as="sourcePoint" />
            <mxPoint x="80.47619047619048" y="58.199999999999996" as="targetPoint" />
          </mxGeometry>
        </mxCell>
        <mxCell id="TZnY_ZwAf_DfWxbRwsDl-73" value="" style="endArrow=block;html=1;rounded=0;exitX=0.93;exitY=0.361;exitDx=0;exitDy=0;entryX=0.047;entryY=0.917;entryDx=0;entryDy=0;entryPerimeter=0;endSize=2;exitPerimeter=0;strokeColor=default;align=center;verticalAlign=middle;fontFamily=Helvetica;fontSize=11;fontColor=default;labelBackgroundColor=default;endFill=1;" edge="1" parent="TZnY_ZwAf_DfWxbRwsDl-54" source="TZnY_ZwAf_DfWxbRwsDl-67" target="TZnY_ZwAf_DfWxbRwsDl-61">
          <mxGeometry width="50" height="50" relative="1" as="geometry">
            <mxPoint x="98.42857142857143" y="64.2" as="sourcePoint" />
            <mxPoint x="48.285714285714285" y="58.199999999999996" as="targetPoint" />
          </mxGeometry>
        </mxCell>
        <mxCell id="TZnY_ZwAf_DfWxbRwsDl-74" value="" style="endArrow=open;startArrow=open;html=1;rounded=0;entryX=0.5;entryY=1;entryDx=0;entryDy=0;exitX=0.5;exitY=0;exitDx=0;exitDy=0;endSize=2;startSize=2;startFill=0;endFill=0;" edge="1" parent="TZnY_ZwAf_DfWxbRwsDl-54" source="TZnY_ZwAf_DfWxbRwsDl-67" target="TZnY_ZwAf_DfWxbRwsDl-57">
          <mxGeometry width="50" height="50" relative="1" as="geometry">
            <mxPoint x="12.380952380952381" y="60" as="sourcePoint" />
            <mxPoint x="43.333333333333336" y="30" as="targetPoint" />
          </mxGeometry>
        </mxCell>
        <mxCell id="TZnY_ZwAf_DfWxbRwsDl-75" value="" style="endArrow=open;startArrow=open;html=1;rounded=0;entryX=0.409;entryY=0.996;entryDx=0;entryDy=0;exitX=0.572;exitY=0.009;exitDx=0;exitDy=0;endSize=2;startSize=2;startFill=0;endFill=0;entryPerimeter=0;exitPerimeter=0;" edge="1" parent="TZnY_ZwAf_DfWxbRwsDl-54" source="TZnY_ZwAf_DfWxbRwsDl-65" target="TZnY_ZwAf_DfWxbRwsDl-55">
          <mxGeometry width="50" height="50" relative="1" as="geometry">
            <mxPoint x="111.31095238095239" y="54" as="sourcePoint" />
            <mxPoint x="111.31095238095239" y="36" as="targetPoint" />
          </mxGeometry>
        </mxCell>
        <mxCell id="TZnY_ZwAf_DfWxbRwsDl-76" value="&lt;font size=&quot;1&quot; color=&quot;#475f75&quot;&gt;&lt;b style=&quot;&quot;&gt;UML Class Diagram&lt;/b&gt;&lt;/font&gt;" style="rounded=1;whiteSpace=wrap;html=1;arcSize=50;strokeColor=#475f75;fillColor=default;strokeWidth=1.5;" vertex="1" parent="1">
          <mxGeometry x="193" y="157" width="107" height="16" as="geometry" />
        </mxCell>
        <mxCell id="TZnY_ZwAf_DfWxbRwsDl-77" value="&lt;font size=&quot;1&quot; color=&quot;#475f75&quot;&gt;&lt;b style=&quot;&quot;&gt;UML activity Diagram&lt;/b&gt;&lt;/font&gt;" style="rounded=1;whiteSpace=wrap;html=1;arcSize=50;strokeColor=#475f75;fillColor=default;strokeWidth=1.5;" vertex="1" parent="1">
          <mxGeometry x="193" y="1180" width="107" height="16" as="geometry" />
        </mxCell>
        <mxCell id="TZnY_ZwAf_DfWxbRwsDl-93" value="&lt;font style=&quot;font-size: 14px; color: rgb(255, 255, 255);&quot;&gt;&lt;b style=&quot;&quot;&gt;BatteryPack&lt;/b&gt;&lt;/font&gt;" style="rounded=1;whiteSpace=wrap;html=1;arcSize=50;strokeColor=none;fillColor=#0C8CF2;strokeWidth=2;dashed=0;opacity=50;align=center;verticalAlign=middle;fontFamily=Helvetica;fontSize=12;fontColor=default;gradientColor=none;" vertex="1" parent="1">
          <mxGeometry x="40" y="80" width="120" height="40" as="geometry" />
        </mxCell>
        <mxCell id="TZnY_ZwAf_DfWxbRwsDl-99" style="edgeStyle=orthogonalEdgeStyle;rounded=0;orthogonalLoop=1;jettySize=auto;html=1;entryX=0.5;entryY=1;entryDx=0;entryDy=0;endArrow=none;endFill=0;endSize=16;exitX=0.5;exitY=0;exitDx=0;exitDy=0;" edge="1" parent="1" source="TZnY_ZwAf_DfWxbRwsDl-106" target="TZnY_ZwAf_DfWxbRwsDl-105">
          <mxGeometry relative="1" as="geometry">
            <mxPoint x="215.99999999999977" y="495" as="sourcePoint" />
            <mxPoint x="320" y="495" as="targetPoint" />
          </mxGeometry>
        </mxCell>
        <mxCell id="TZnY_ZwAf_DfWxbRwsDl-100" value="1" style="edgeLabel;html=1;align=center;verticalAlign=middle;resizable=0;points=[];labelBackgroundColor=none;" vertex="1" connectable="0" parent="TZnY_ZwAf_DfWxbRwsDl-99">
          <mxGeometry x="0.7313" y="-1" relative="1" as="geometry">
            <mxPoint x="-6" y="-2" as="offset" />
          </mxGeometry>
        </mxCell>
        <mxCell id="TZnY_ZwAf_DfWxbRwsDl-101" value="2" style="edgeLabel;html=1;align=center;verticalAlign=middle;resizable=0;points=[];labelBackgroundColor=none;" vertex="1" connectable="0" parent="TZnY_ZwAf_DfWxbRwsDl-99">
          <mxGeometry x="-0.575" relative="1" as="geometry">
            <mxPoint x="-8" y="9" as="offset" />
          </mxGeometry>
        </mxCell>
        <mxCell id="TZnY_ZwAf_DfWxbRwsDl-102" style="edgeStyle=orthogonalEdgeStyle;rounded=0;orthogonalLoop=1;jettySize=auto;html=1;exitX=1;exitY=0.5;exitDx=0;exitDy=0;entryX=0;entryY=0.5;entryDx=0;entryDy=0;endArrow=none;endFill=0;" edge="1" parent="1" source="TZnY_ZwAf_DfWxbRwsDl-105" target="TZnY_ZwAf_DfWxbRwsDl-107">
          <mxGeometry relative="1" as="geometry" />
        </mxCell>
        <mxCell id="TZnY_ZwAf_DfWxbRwsDl-103" value="1" style="edgeLabel;html=1;align=center;verticalAlign=middle;resizable=0;points=[];labelBackgroundColor=none;" vertex="1" connectable="0" parent="TZnY_ZwAf_DfWxbRwsDl-102">
          <mxGeometry x="0.771" relative="1" as="geometry">
            <mxPoint y="-15" as="offset" />
          </mxGeometry>
        </mxCell>
        <mxCell id="TZnY_ZwAf_DfWxbRwsDl-104" value="1" style="edgeLabel;html=1;align=center;verticalAlign=middle;resizable=0;points=[];labelBackgroundColor=none;" vertex="1" connectable="0" parent="TZnY_ZwAf_DfWxbRwsDl-102">
          <mxGeometry x="-0.6836" relative="1" as="geometry">
            <mxPoint y="-15" as="offset" />
          </mxGeometry>
        </mxCell>
        <mxCell id="TZnY_ZwAf_DfWxbRwsDl-105" value="&lt;p style=&quot;margin:0px;margin-top:4px;text-align:center;&quot;&gt;&amp;lt;&amp;lt;subject&amp;gt;&amp;gt;&lt;/p&gt;&lt;p style=&quot;margin:0px;margin-top:4px;text-align:center;&quot;&gt;BatteryPack&lt;/p&gt;&lt;p style=&quot;margin: 0px 0px 0px 4px;&quot;&gt;&lt;br&gt;&lt;/p&gt;" style="verticalAlign=top;align=left;overflow=fill;html=1;whiteSpace=wrap;rounded=0;" vertex="1" parent="1">
          <mxGeometry x="160" y="250" width="170" height="60" as="geometry" />
        </mxCell>
        <mxCell id="TZnY_ZwAf_DfWxbRwsDl-106" value="&lt;p style=&quot;margin:0px;margin-top:4px;text-align:center;&quot;&gt;&amp;lt;&amp;lt;component&amp;gt;&amp;gt;&lt;/p&gt;&lt;p style=&quot;margin:0px;margin-top:4px;text-align:center;&quot;&gt;Battery&lt;/p&gt;&lt;hr size=&quot;1&quot; style=&quot;border-style:solid;&quot;&gt;&lt;p style=&quot;margin:0px;margin-left:4px;&quot;&gt;&lt;span style=&quot;background-color: transparent; color: light-dark(rgb(0, 0, 0), rgb(255, 255, 255));&quot;&gt;getSoC()&lt;/span&gt;&lt;/p&gt;" style="verticalAlign=top;align=left;overflow=fill;html=1;whiteSpace=wrap;rounded=0;" vertex="1" parent="1">
          <mxGeometry x="160" y="380" width="170" height="82.5" as="geometry" />
        </mxCell>
        <mxCell id="TZnY_ZwAf_DfWxbRwsDl-107" value="&lt;p style=&quot;margin:0px;margin-top:4px;text-align:center;&quot;&gt;&amp;lt;&amp;lt;component&amp;gt;&amp;gt;&lt;/p&gt;&lt;p style=&quot;margin:0px;margin-top:4px;text-align:center;&quot;&gt;EVehicle&lt;/p&gt;&lt;p style=&quot;margin:0px;margin-left:4px;&quot;&gt;&lt;br&gt;&lt;/p&gt;&lt;p style=&quot;margin:0px;margin-left:4px;&quot;&gt;&lt;br&gt;&lt;/p&gt;" style="verticalAlign=top;align=left;overflow=fill;html=1;whiteSpace=wrap;rounded=0;glass=0;" vertex="1" parent="1">
          <mxGeometry x="440" y="250" width="160" height="60" as="geometry" />
        </mxCell>
        <mxCell id="TZnY_ZwAf_DfWxbRwsDl-172" value="Pool" style="swimlane;html=1;childLayout=stackLayout;startSize=20;rounded=0;shadow=0;comic=0;labelBackgroundColor=none;strokeWidth=1;fontFamily=Verdana;fontSize=12;align=center;" vertex="1" parent="1">
          <mxGeometry x="45" y="1283" width="750" height="540" as="geometry">
            <mxRectangle x="45" y="640" width="70" height="30" as="alternateBounds" />
          </mxGeometry>
        </mxCell>
        <mxCell id="TZnY_ZwAf_DfWxbRwsDl-173" value=":BatteryNo1" style="swimlane;html=1;startSize=20;" vertex="1" parent="TZnY_ZwAf_DfWxbRwsDl-172">
          <mxGeometry y="20" width="250" height="520" as="geometry">
            <mxRectangle y="20" width="40" height="420" as="alternateBounds" />
          </mxGeometry>
        </mxCell>
        <mxCell id="TZnY_ZwAf_DfWxbRwsDl-181" value="getSoC" style="rounded=1;whiteSpace=wrap;html=1;shadow=0;comic=0;labelBackgroundColor=none;strokeWidth=1;fontFamily=Verdana;fontSize=12;align=center;arcSize=50;" vertex="1" parent="TZnY_ZwAf_DfWxbRwsDl-173">
          <mxGeometry x="75" y="270" width="100" height="30" as="geometry" />
        </mxCell>
        <mxCell id="TZnY_ZwAf_DfWxbRwsDl-174" value=":BatteryPack" style="swimlane;html=1;startSize=20;" vertex="1" parent="TZnY_ZwAf_DfWxbRwsDl-172">
          <mxGeometry x="250" y="20" width="250" height="520" as="geometry" />
        </mxCell>
        <mxCell id="TZnY_ZwAf_DfWxbRwsDl-177" value="drawPower" style="rounded=1;whiteSpace=wrap;html=1;shadow=0;comic=0;labelBackgroundColor=none;strokeWidth=1;fontFamily=Verdana;fontSize=12;align=center;arcSize=50;" vertex="1" parent="TZnY_ZwAf_DfWxbRwsDl-174">
          <mxGeometry x="75" y="100" width="100" height="30" as="geometry" />
        </mxCell>
        <mxCell id="TZnY_ZwAf_DfWxbRwsDl-178" style="edgeStyle=orthogonalEdgeStyle;rounded=0;orthogonalLoop=1;jettySize=auto;html=1;entryX=0.5;entryY=0;entryDx=0;entryDy=0;endArrow=open;endFill=0;" edge="1" parent="TZnY_ZwAf_DfWxbRwsDl-174" source="TZnY_ZwAf_DfWxbRwsDl-176" target="TZnY_ZwAf_DfWxbRwsDl-177">
          <mxGeometry relative="1" as="geometry" />
        </mxCell>
        <mxCell id="TZnY_ZwAf_DfWxbRwsDl-176" value="" style="ellipse;whiteSpace=wrap;html=1;rounded=0;shadow=0;comic=0;labelBackgroundColor=none;strokeWidth=1;fillColor=#000000;fontFamily=Verdana;fontSize=12;align=center;" vertex="1" parent="TZnY_ZwAf_DfWxbRwsDl-174">
          <mxGeometry x="113.5" y="50" width="23" height="23" as="geometry" />
        </mxCell>
        <mxCell id="TZnY_ZwAf_DfWxbRwsDl-179" value="checkSoC" style="rounded=1;whiteSpace=wrap;html=1;shadow=0;comic=0;labelBackgroundColor=none;strokeWidth=1;fontFamily=Verdana;fontSize=12;align=center;arcSize=50;" vertex="1" parent="TZnY_ZwAf_DfWxbRwsDl-174">
          <mxGeometry x="75" y="160" width="100" height="30" as="geometry" />
        </mxCell>
        <mxCell id="TZnY_ZwAf_DfWxbRwsDl-180" style="edgeStyle=orthogonalEdgeStyle;rounded=0;orthogonalLoop=1;jettySize=auto;html=1;entryX=0.5;entryY=0;entryDx=0;entryDy=0;endArrow=open;endFill=0;" edge="1" parent="TZnY_ZwAf_DfWxbRwsDl-174" source="TZnY_ZwAf_DfWxbRwsDl-177" target="TZnY_ZwAf_DfWxbRwsDl-179">
          <mxGeometry relative="1" as="geometry" />
        </mxCell>
        <mxCell id="TZnY_ZwAf_DfWxbRwsDl-175" value=":BatteryNo2" style="swimlane;html=1;startSize=20;" vertex="1" parent="TZnY_ZwAf_DfWxbRwsDl-172">
          <mxGeometry x="500" y="20" width="250" height="520" as="geometry" />
        </mxCell>
        <mxCell id="TZnY_ZwAf_DfWxbRwsDl-196" value="drawPower" style="rounded=1;whiteSpace=wrap;html=1;shadow=0;comic=0;labelBackgroundColor=none;strokeWidth=1;fontFamily=Verdana;fontSize=12;align=center;arcSize=50;" vertex="1" parent="TZnY_ZwAf_DfWxbRwsDl-175">
          <mxGeometry x="85" y="457" width="100" height="30" as="geometry" />
        </mxCell>
        <mxCell id="TZnY_ZwAf_DfWxbRwsDl-187" style="edgeStyle=orthogonalEdgeStyle;rounded=0;orthogonalLoop=1;jettySize=auto;html=1;entryX=1;entryY=0.5;entryDx=0;entryDy=0;exitX=0.5;exitY=1;exitDx=0;exitDy=0;endArrow=open;endFill=0;" edge="1" parent="1" source="TZnY_ZwAf_DfWxbRwsDl-182" target="TZnY_ZwAf_DfWxbRwsDl-186">
          <mxGeometry relative="1" as="geometry" />
        </mxCell>
        <mxCell id="TZnY_ZwAf_DfWxbRwsDl-182" value="getSoC" style="rounded=1;whiteSpace=wrap;html=1;shadow=0;comic=0;labelBackgroundColor=none;strokeWidth=1;fontFamily=Verdana;fontSize=12;align=center;arcSize=50;" vertex="1" parent="1">
          <mxGeometry x="630" y="1573" width="100" height="30" as="geometry" />
        </mxCell>
        <mxCell id="TZnY_ZwAf_DfWxbRwsDl-184" style="edgeStyle=orthogonalEdgeStyle;rounded=0;orthogonalLoop=1;jettySize=auto;html=1;entryX=0.5;entryY=0;entryDx=0;entryDy=0;endArrow=open;endFill=0;exitX=0.75;exitY=1;exitDx=0;exitDy=0;" edge="1" parent="1" source="TZnY_ZwAf_DfWxbRwsDl-190" target="TZnY_ZwAf_DfWxbRwsDl-182">
          <mxGeometry relative="1" as="geometry" />
        </mxCell>
        <mxCell id="TZnY_ZwAf_DfWxbRwsDl-193" style="edgeStyle=orthogonalEdgeStyle;rounded=0;orthogonalLoop=1;jettySize=auto;html=1;entryX=0.5;entryY=0;entryDx=0;entryDy=0;endArrow=open;endFill=0;" edge="1" parent="1" source="TZnY_ZwAf_DfWxbRwsDl-186" target="TZnY_ZwAf_DfWxbRwsDl-192">
          <mxGeometry relative="1" as="geometry" />
        </mxCell>
        <mxCell id="TZnY_ZwAf_DfWxbRwsDl-186" value="determining an algorithm" style="rounded=1;whiteSpace=wrap;html=1;shadow=0;comic=0;labelBackgroundColor=none;strokeWidth=1;fontFamily=Verdana;fontSize=12;align=center;arcSize=50;" vertex="1" parent="1">
          <mxGeometry x="370" y="1613" width="100" height="30" as="geometry" />
        </mxCell>
        <mxCell id="TZnY_ZwAf_DfWxbRwsDl-188" style="edgeStyle=orthogonalEdgeStyle;rounded=0;orthogonalLoop=1;jettySize=auto;html=1;entryX=0;entryY=0.5;entryDx=0;entryDy=0;exitX=0.5;exitY=1;exitDx=0;exitDy=0;endArrow=open;endFill=0;" edge="1" parent="1" source="TZnY_ZwAf_DfWxbRwsDl-181" target="TZnY_ZwAf_DfWxbRwsDl-186">
          <mxGeometry relative="1" as="geometry" />
        </mxCell>
        <mxCell id="TZnY_ZwAf_DfWxbRwsDl-190" value="" style="whiteSpace=wrap;html=1;rounded=0;shadow=0;comic=0;labelBackgroundColor=none;strokeWidth=1;fillColor=#000000;fontFamily=Verdana;fontSize=12;align=center;rotation=0;" vertex="1" parent="1">
          <mxGeometry x="346.5" y="1523" width="147" height="10" as="geometry" />
        </mxCell>
        <mxCell id="TZnY_ZwAf_DfWxbRwsDl-191" style="edgeStyle=orthogonalEdgeStyle;rounded=0;orthogonalLoop=1;jettySize=auto;html=1;entryX=0.5;entryY=0;entryDx=0;entryDy=0;endArrow=open;endFill=0;exitX=0.5;exitY=1;exitDx=0;exitDy=0;" edge="1" parent="1" source="TZnY_ZwAf_DfWxbRwsDl-179" target="TZnY_ZwAf_DfWxbRwsDl-190">
          <mxGeometry relative="1" as="geometry">
            <mxPoint x="419.76" y="1493" as="sourcePoint" />
            <mxPoint x="419.76" y="1523" as="targetPoint" />
          </mxGeometry>
        </mxCell>
        <mxCell id="TZnY_ZwAf_DfWxbRwsDl-185" style="edgeStyle=orthogonalEdgeStyle;rounded=0;orthogonalLoop=1;jettySize=auto;html=1;entryX=0.5;entryY=0;entryDx=0;entryDy=0;endArrow=open;endFill=0;exitX=0.25;exitY=1;exitDx=0;exitDy=0;" edge="1" parent="1" source="TZnY_ZwAf_DfWxbRwsDl-190" target="TZnY_ZwAf_DfWxbRwsDl-181">
          <mxGeometry relative="1" as="geometry" />
        </mxCell>
        <mxCell id="TZnY_ZwAf_DfWxbRwsDl-197" style="edgeStyle=orthogonalEdgeStyle;rounded=0;orthogonalLoop=1;jettySize=auto;html=1;entryX=0.5;entryY=0;entryDx=0;entryDy=0;endArrow=open;endFill=0;" edge="1" parent="1" source="TZnY_ZwAf_DfWxbRwsDl-192" target="TZnY_ZwAf_DfWxbRwsDl-195">
          <mxGeometry relative="1" as="geometry" />
        </mxCell>
        <mxCell id="TZnY_ZwAf_DfWxbRwsDl-199" value="&lt;span&gt;socBNo1&amp;gt;=pollSoC/2&lt;/span&gt;" style="edgeLabel;html=1;align=center;verticalAlign=middle;resizable=0;points=[];labelBackgroundColor=none;" vertex="1" connectable="0" parent="TZnY_ZwAf_DfWxbRwsDl-197">
          <mxGeometry x="-0.3203" y="2" relative="1" as="geometry">
            <mxPoint x="52" y="-15" as="offset" />
          </mxGeometry>
        </mxCell>
        <mxCell id="TZnY_ZwAf_DfWxbRwsDl-198" style="edgeStyle=orthogonalEdgeStyle;rounded=0;orthogonalLoop=1;jettySize=auto;html=1;exitX=1;exitY=0.5;exitDx=0;exitDy=0;entryX=0.5;entryY=0;entryDx=0;entryDy=0;endArrow=open;endFill=0;" edge="1" parent="1" source="TZnY_ZwAf_DfWxbRwsDl-192" target="TZnY_ZwAf_DfWxbRwsDl-196">
          <mxGeometry relative="1" as="geometry" />
        </mxCell>
        <mxCell id="TZnY_ZwAf_DfWxbRwsDl-192" value="" style="rhombus;whiteSpace=wrap;html=1;" vertex="1" parent="1">
          <mxGeometry x="400" y="1673" width="40" height="40" as="geometry" />
        </mxCell>
        <mxCell id="TZnY_ZwAf_DfWxbRwsDl-195" value="drawPower" style="rounded=1;whiteSpace=wrap;html=1;shadow=0;comic=0;labelBackgroundColor=none;strokeWidth=1;fontFamily=Verdana;fontSize=12;align=center;arcSize=50;" vertex="1" parent="1">
          <mxGeometry x="120" y="1770" width="100" height="30" as="geometry" />
        </mxCell>
        <mxCell id="TZnY_ZwAf_DfWxbRwsDl-200" value="&lt;span&gt;socBNo2&amp;gt;=pollSoC/2&lt;/span&gt;" style="edgeLabel;html=1;align=center;verticalAlign=middle;resizable=0;points=[];labelBackgroundColor=none;" vertex="1" connectable="0" parent="1">
          <mxGeometry x="490" y="1680" as="geometry" />
        </mxCell>
        <mxCell id="TZnY_ZwAf_DfWxbRwsDl-202" value="&lt;font color=&quot;#0070f2&quot; face=&quot;arial&quot; style=&quot;font-size: 16px;&quot;&gt;&lt;b style=&quot;font-size: 16px;&quot;&gt;DrawingPower&lt;/b&gt;&lt;/font&gt;" style="text;html=1;align=left;verticalAlign=middle;resizable=0;points=[];autosize=1;strokeColor=none;fillColor=none;fontSize=12;fontColor=#1d2d3e;fontFamily=Helvetica;" vertex="1" parent="1">
          <mxGeometry x="50" y="1213" width="130" height="30" as="geometry" />
        </mxCell>
        <mxCell id="TZnY_ZwAf_DfWxbRwsDl-203" value="" style="rounded=1;whiteSpace=wrap;html=1;strokeColor=#475E75;fillColor=#F5F6F7;arcSize=24;absoluteArcSize=1;imageWidth=64;imageHeight=64;strokeWidth=1.5;" vertex="1" parent="1">
          <mxGeometry x="40" y="550" width="760" height="480" as="geometry" />
        </mxCell>
        <mxCell id="TZnY_ZwAf_DfWxbRwsDl-204" value="&lt;b&gt;Interaction Model&lt;/b&gt;" style="rounded=1;whiteSpace=wrap;html=1;strokeWidth=1.5;arcSize=16;perimeterSpacing=0;absoluteArcSize=1;" vertex="1" parent="1">
          <mxGeometry x="50" y="560" width="130" height="30" as="geometry" />
        </mxCell>
        <mxCell id="TZnY_ZwAf_DfWxbRwsDl-205" value="" style="group;glass=0;shadow=0;" vertex="1" connectable="0" parent="1">
          <mxGeometry x="660" y="570" width="130" height="90" as="geometry" />
        </mxCell>
        <mxCell id="TZnY_ZwAf_DfWxbRwsDl-206" value="" style="shape=parallelogram;html=1;strokeWidth=1;perimeter=parallelogramPerimeter;whiteSpace=wrap;rounded=1;arcSize=12;size=0.23;shadow=0;" vertex="1" parent="TZnY_ZwAf_DfWxbRwsDl-205">
          <mxGeometry x="92.85714285714286" y="24" width="37.142857142857146" height="12" as="geometry" />
        </mxCell>
        <mxCell id="TZnY_ZwAf_DfWxbRwsDl-207" value="" style="shape=parallelogram;html=1;strokeWidth=1;perimeter=parallelogramPerimeter;whiteSpace=wrap;rounded=1;arcSize=12;size=0.23;shadow=0;" vertex="1" parent="TZnY_ZwAf_DfWxbRwsDl-205">
          <mxGeometry x="49.523809523809526" width="37.142857142857146" height="12" as="geometry" />
        </mxCell>
        <mxCell id="TZnY_ZwAf_DfWxbRwsDl-208" value="" style="shape=parallelogram;html=1;strokeWidth=1;perimeter=parallelogramPerimeter;whiteSpace=wrap;rounded=1;arcSize=12;size=0.23;shadow=0;" vertex="1" parent="TZnY_ZwAf_DfWxbRwsDl-205">
          <mxGeometry y="24" width="37.142857142857146" height="12" as="geometry" />
        </mxCell>
        <mxCell id="TZnY_ZwAf_DfWxbRwsDl-209" value="" style="edgeStyle=isometricEdgeStyle;endArrow=none;html=1;elbow=vertical;rounded=0;entryX=1;entryY=0.5;entryDx=0;entryDy=0;exitX=1;exitY=0.5;exitDx=0;exitDy=0;" edge="1" parent="TZnY_ZwAf_DfWxbRwsDl-205" source="TZnY_ZwAf_DfWxbRwsDl-207" target="TZnY_ZwAf_DfWxbRwsDl-207">
          <mxGeometry width="50" height="100" relative="1" as="geometry">
            <mxPoint x="89.76190476190476" y="72" as="sourcePoint" />
            <mxPoint x="120.71428571428572" y="12" as="targetPoint" />
            <Array as="points" />
          </mxGeometry>
        </mxCell>
        <mxCell id="TZnY_ZwAf_DfWxbRwsDl-210" value="" style="endArrow=open;html=1;rounded=0;endSize=2;entryX=1;entryY=0.5;entryDx=0;entryDy=0;exitX=0.598;exitY=-0.024;exitDx=0;exitDy=0;exitPerimeter=0;startArrow=open;startFill=0;endFill=0;startSize=2;" edge="1" parent="TZnY_ZwAf_DfWxbRwsDl-205" source="TZnY_ZwAf_DfWxbRwsDl-206" target="TZnY_ZwAf_DfWxbRwsDl-207">
          <mxGeometry width="50" height="50" relative="1" as="geometry">
            <mxPoint x="117.61904761904762" y="30" as="sourcePoint" />
            <mxPoint x="94.77619047619042" y="12" as="targetPoint" />
            <Array as="points">
              <mxPoint x="123.80952380952381" y="6" />
            </Array>
          </mxGeometry>
        </mxCell>
        <mxCell id="TZnY_ZwAf_DfWxbRwsDl-211" value="" style="endArrow=open;html=1;rounded=0;endSize=2;entryX=0;entryY=0.5;entryDx=0;entryDy=0;exitX=0.5;exitY=0;exitDx=0;exitDy=0;strokeColor=default;align=center;verticalAlign=middle;fontFamily=Helvetica;fontSize=11;fontColor=default;labelBackgroundColor=default;startArrow=open;startFill=0;startSize=2;endFill=0;" edge="1" parent="TZnY_ZwAf_DfWxbRwsDl-205" source="TZnY_ZwAf_DfWxbRwsDl-208" target="TZnY_ZwAf_DfWxbRwsDl-207">
          <mxGeometry width="50" height="50" relative="1" as="geometry">
            <mxPoint x="59.42857142857143" y="24" as="sourcePoint" />
            <mxPoint x="51.38095238095238" y="12" as="targetPoint" />
            <Array as="points">
              <mxPoint x="30.952380952380953" y="6" />
            </Array>
          </mxGeometry>
        </mxCell>
        <mxCell id="TZnY_ZwAf_DfWxbRwsDl-212" value="" style="shape=cube;whiteSpace=wrap;html=1;boundedLbl=1;backgroundOutline=1;darkOpacity=0.05;darkOpacity2=0.1;size=10;shadow=1;" vertex="1" parent="TZnY_ZwAf_DfWxbRwsDl-205">
          <mxGeometry x="52.61904761904762" y="25.2" width="24.761904761904763" height="36" as="geometry" />
        </mxCell>
        <mxCell id="TZnY_ZwAf_DfWxbRwsDl-213" value="" style="endArrow=block;html=1;rounded=0;exitX=0.475;exitY=0.969;exitDx=0;exitDy=0;exitPerimeter=0;entryX=0.332;entryY=-0.012;entryDx=0;entryDy=0;entryPerimeter=0;endSize=2;strokeColor=default;align=center;verticalAlign=middle;fontFamily=Helvetica;fontSize=11;fontColor=default;labelBackgroundColor=default;endFill=1;" edge="1" parent="TZnY_ZwAf_DfWxbRwsDl-205" source="TZnY_ZwAf_DfWxbRwsDl-207" target="TZnY_ZwAf_DfWxbRwsDl-212">
          <mxGeometry width="50" height="50" relative="1" as="geometry">
            <mxPoint x="74.28571428571429" y="78" as="sourcePoint" />
            <mxPoint x="105.23809523809524" y="48" as="targetPoint" />
          </mxGeometry>
        </mxCell>
        <mxCell id="TZnY_ZwAf_DfWxbRwsDl-214" value="" style="endArrow=block;html=1;rounded=0;exitX=0;exitY=0.25;exitDx=0;exitDy=0;entryX=0.753;entryY=0.083;entryDx=0;entryDy=0;entryPerimeter=0;endSize=2;strokeColor=default;align=center;verticalAlign=middle;fontFamily=Helvetica;fontSize=11;fontColor=default;labelBackgroundColor=default;endFill=1;" edge="1" parent="TZnY_ZwAf_DfWxbRwsDl-205" source="TZnY_ZwAf_DfWxbRwsDl-206" target="TZnY_ZwAf_DfWxbRwsDl-212">
          <mxGeometry width="50" height="50" relative="1" as="geometry">
            <mxPoint x="71.19047619047619" y="18" as="sourcePoint" />
            <mxPoint x="71.19047619047619" y="30" as="targetPoint" />
          </mxGeometry>
        </mxCell>
        <mxCell id="TZnY_ZwAf_DfWxbRwsDl-215" value="" style="endArrow=block;html=1;rounded=0;exitX=0.93;exitY=0.361;exitDx=0;exitDy=0;entryX=-0.052;entryY=0.085;entryDx=0;entryDy=0;entryPerimeter=0;endSize=2;exitPerimeter=0;endFill=1;" edge="1" parent="TZnY_ZwAf_DfWxbRwsDl-205" source="TZnY_ZwAf_DfWxbRwsDl-208" target="TZnY_ZwAf_DfWxbRwsDl-212">
          <mxGeometry width="50" height="50" relative="1" as="geometry">
            <mxPoint x="104.61904761904762" y="34.199999999999996" as="sourcePoint" />
            <mxPoint x="83.57142857142857" y="34.199999999999996" as="targetPoint" />
          </mxGeometry>
        </mxCell>
        <mxCell id="TZnY_ZwAf_DfWxbRwsDl-216" value="" style="shape=parallelogram;html=1;strokeWidth=1;perimeter=parallelogramPerimeter;whiteSpace=wrap;rounded=1;arcSize=12;size=0.23;shadow=1;fillColor=#FFFFFF;" vertex="1" parent="TZnY_ZwAf_DfWxbRwsDl-205">
          <mxGeometry x="86.66666666666667" y="54" width="37.142857142857146" height="12" as="geometry" />
        </mxCell>
        <mxCell id="TZnY_ZwAf_DfWxbRwsDl-217" value="" style="shape=parallelogram;html=1;strokeWidth=1;perimeter=parallelogramPerimeter;whiteSpace=wrap;rounded=1;arcSize=12;size=0.23;shadow=1;" vertex="1" parent="TZnY_ZwAf_DfWxbRwsDl-205">
          <mxGeometry x="24.761904761904763" y="78" width="37.142857142857146" height="12" as="geometry" />
        </mxCell>
        <mxCell id="TZnY_ZwAf_DfWxbRwsDl-218" value="" style="shape=parallelogram;html=1;strokeWidth=1;perimeter=parallelogramPerimeter;whiteSpace=wrap;rounded=1;arcSize=12;size=0.23;shadow=1;fillColor=#000000;" vertex="1" parent="TZnY_ZwAf_DfWxbRwsDl-205">
          <mxGeometry y="54" width="37.142857142857146" height="12" as="geometry" />
        </mxCell>
        <mxCell id="TZnY_ZwAf_DfWxbRwsDl-219" value="" style="edgeStyle=isometricEdgeStyle;endArrow=none;html=1;elbow=vertical;rounded=0;entryX=1;entryY=0.5;entryDx=0;entryDy=0;exitX=1;exitY=0.5;exitDx=0;exitDy=0;" edge="1" parent="TZnY_ZwAf_DfWxbRwsDl-205" source="TZnY_ZwAf_DfWxbRwsDl-217" target="TZnY_ZwAf_DfWxbRwsDl-217">
          <mxGeometry width="50" height="100" relative="1" as="geometry">
            <mxPoint x="83.57142857142857" y="102" as="sourcePoint" />
            <mxPoint x="114.52380952380953" y="42" as="targetPoint" />
            <Array as="points" />
          </mxGeometry>
        </mxCell>
        <mxCell id="TZnY_ZwAf_DfWxbRwsDl-220" value="" style="endArrow=open;html=1;rounded=0;endSize=2;entryX=1;entryY=0.5;entryDx=0;entryDy=0;exitX=0.421;exitY=1.024;exitDx=0;exitDy=0;exitPerimeter=0;strokeColor=default;align=center;verticalAlign=middle;fontFamily=Helvetica;fontSize=11;fontColor=default;labelBackgroundColor=default;startArrow=open;startFill=0;startSize=2;endFill=0;" edge="1" parent="TZnY_ZwAf_DfWxbRwsDl-205" source="TZnY_ZwAf_DfWxbRwsDl-216" target="TZnY_ZwAf_DfWxbRwsDl-217">
          <mxGeometry width="50" height="50" relative="1" as="geometry">
            <mxPoint x="111.42857142857143" y="60" as="sourcePoint" />
            <mxPoint x="88.58571428571423" y="42" as="targetPoint" />
            <Array as="points">
              <mxPoint x="92.85714285714286" y="84" />
            </Array>
          </mxGeometry>
        </mxCell>
        <mxCell id="TZnY_ZwAf_DfWxbRwsDl-221" value="" style="endArrow=open;html=1;rounded=0;endSize=2;entryX=0;entryY=0.5;entryDx=0;entryDy=0;exitX=0.405;exitY=1.002;exitDx=0;exitDy=0;exitPerimeter=0;strokeColor=default;align=center;verticalAlign=middle;fontFamily=Helvetica;fontSize=11;fontColor=default;labelBackgroundColor=default;startArrow=open;startFill=0;startSize=2;endFill=0;" edge="1" parent="TZnY_ZwAf_DfWxbRwsDl-205" source="TZnY_ZwAf_DfWxbRwsDl-218" target="TZnY_ZwAf_DfWxbRwsDl-217">
          <mxGeometry width="50" height="50" relative="1" as="geometry">
            <mxPoint x="53.23809523809524" y="54" as="sourcePoint" />
            <mxPoint x="45.19047619047619" y="42" as="targetPoint" />
            <Array as="points">
              <mxPoint y="84" />
            </Array>
          </mxGeometry>
        </mxCell>
        <mxCell id="TZnY_ZwAf_DfWxbRwsDl-222" value="" style="endArrow=block;html=1;rounded=0;exitX=0.605;exitY=-0.013;exitDx=0;exitDy=0;exitPerimeter=0;entryX=0.326;entryY=1.008;entryDx=0;entryDy=0;entryPerimeter=0;endSize=2;strokeColor=default;align=center;verticalAlign=middle;fontFamily=Helvetica;fontSize=11;fontColor=default;labelBackgroundColor=default;endFill=1;" edge="1" parent="TZnY_ZwAf_DfWxbRwsDl-205" source="TZnY_ZwAf_DfWxbRwsDl-217" target="TZnY_ZwAf_DfWxbRwsDl-212">
          <mxGeometry width="50" height="50" relative="1" as="geometry">
            <mxPoint x="68.0952380952381" y="108" as="sourcePoint" />
            <mxPoint x="58.80952380952381" y="55.199999999999996" as="targetPoint" />
          </mxGeometry>
        </mxCell>
        <mxCell id="TZnY_ZwAf_DfWxbRwsDl-223" value="" style="endArrow=block;html=1;rounded=0;exitX=0;exitY=0.25;exitDx=0;exitDy=0;endSize=2;entryX=1.006;entryY=0.917;entryDx=0;entryDy=0;entryPerimeter=0;strokeColor=default;align=center;verticalAlign=middle;fontFamily=Helvetica;fontSize=11;fontColor=default;labelBackgroundColor=default;endFill=1;" edge="1" parent="TZnY_ZwAf_DfWxbRwsDl-205" source="TZnY_ZwAf_DfWxbRwsDl-216" target="TZnY_ZwAf_DfWxbRwsDl-212">
          <mxGeometry width="50" height="50" relative="1" as="geometry">
            <mxPoint x="65" y="48" as="sourcePoint" />
            <mxPoint x="80.47619047619048" y="58.199999999999996" as="targetPoint" />
          </mxGeometry>
        </mxCell>
        <mxCell id="TZnY_ZwAf_DfWxbRwsDl-224" value="" style="endArrow=block;html=1;rounded=0;exitX=0.93;exitY=0.361;exitDx=0;exitDy=0;entryX=0.047;entryY=0.917;entryDx=0;entryDy=0;entryPerimeter=0;endSize=2;exitPerimeter=0;strokeColor=default;align=center;verticalAlign=middle;fontFamily=Helvetica;fontSize=11;fontColor=default;labelBackgroundColor=default;endFill=1;" edge="1" parent="TZnY_ZwAf_DfWxbRwsDl-205" source="TZnY_ZwAf_DfWxbRwsDl-218" target="TZnY_ZwAf_DfWxbRwsDl-212">
          <mxGeometry width="50" height="50" relative="1" as="geometry">
            <mxPoint x="98.42857142857143" y="64.2" as="sourcePoint" />
            <mxPoint x="48.285714285714285" y="58.199999999999996" as="targetPoint" />
          </mxGeometry>
        </mxCell>
        <mxCell id="TZnY_ZwAf_DfWxbRwsDl-225" value="" style="endArrow=open;startArrow=open;html=1;rounded=0;entryX=0.5;entryY=1;entryDx=0;entryDy=0;exitX=0.5;exitY=0;exitDx=0;exitDy=0;endSize=2;startSize=2;startFill=0;endFill=0;" edge="1" parent="TZnY_ZwAf_DfWxbRwsDl-205" source="TZnY_ZwAf_DfWxbRwsDl-218" target="TZnY_ZwAf_DfWxbRwsDl-208">
          <mxGeometry width="50" height="50" relative="1" as="geometry">
            <mxPoint x="12.380952380952381" y="60" as="sourcePoint" />
            <mxPoint x="43.333333333333336" y="30" as="targetPoint" />
          </mxGeometry>
        </mxCell>
        <mxCell id="TZnY_ZwAf_DfWxbRwsDl-226" value="" style="endArrow=open;startArrow=open;html=1;rounded=0;entryX=0.409;entryY=0.996;entryDx=0;entryDy=0;exitX=0.572;exitY=0.009;exitDx=0;exitDy=0;endSize=2;startSize=2;startFill=0;endFill=0;entryPerimeter=0;exitPerimeter=0;" edge="1" parent="TZnY_ZwAf_DfWxbRwsDl-205" source="TZnY_ZwAf_DfWxbRwsDl-216" target="TZnY_ZwAf_DfWxbRwsDl-206">
          <mxGeometry width="50" height="50" relative="1" as="geometry">
            <mxPoint x="111.31095238095239" y="54" as="sourcePoint" />
            <mxPoint x="111.31095238095239" y="36" as="targetPoint" />
          </mxGeometry>
        </mxCell>
        <mxCell id="TZnY_ZwAf_DfWxbRwsDl-227" value="&lt;font size=&quot;1&quot; color=&quot;#475f75&quot;&gt;&lt;b style=&quot;&quot;&gt;UML Collaboration Diagram&lt;/b&gt;&lt;/font&gt;" style="rounded=1;whiteSpace=wrap;html=1;arcSize=50;strokeColor=#475f75;fillColor=default;strokeWidth=1.5;" vertex="1" parent="1">
          <mxGeometry x="193" y="567" width="147" height="16" as="geometry" />
        </mxCell>
        <mxCell id="TZnY_ZwAf_DfWxbRwsDl-246" style="edgeStyle=orthogonalEdgeStyle;rounded=0;orthogonalLoop=1;jettySize=auto;html=1;entryX=0;entryY=0.5;entryDx=0;entryDy=0;endArrow=none;endFill=0;" edge="1" parent="1" source="TZnY_ZwAf_DfWxbRwsDl-239" target="TZnY_ZwAf_DfWxbRwsDl-240">
          <mxGeometry relative="1" as="geometry" />
        </mxCell>
        <mxCell id="TZnY_ZwAf_DfWxbRwsDl-253" value="1: getSoC(): currentSoC" style="edgeLabel;html=1;align=center;verticalAlign=middle;resizable=0;points=[];labelBackgroundColor=none;" vertex="1" connectable="0" parent="TZnY_ZwAf_DfWxbRwsDl-246">
          <mxGeometry x="-0.0038" y="1" relative="1" as="geometry">
            <mxPoint y="-14" as="offset" />
          </mxGeometry>
        </mxCell>
        <mxCell id="TZnY_ZwAf_DfWxbRwsDl-255" value="3: [SoC&amp;gt;=pollSoC]drawPower()" style="edgeLabel;html=1;align=center;verticalAlign=middle;resizable=0;points=[];labelBackgroundColor=none;" vertex="1" connectable="0" parent="TZnY_ZwAf_DfWxbRwsDl-246">
          <mxGeometry x="-0.0267" y="1" relative="1" as="geometry">
            <mxPoint y="11" as="offset" />
          </mxGeometry>
        </mxCell>
        <mxCell id="TZnY_ZwAf_DfWxbRwsDl-247" style="edgeStyle=orthogonalEdgeStyle;rounded=0;orthogonalLoop=1;jettySize=auto;html=1;exitX=0.75;exitY=1;exitDx=0;exitDy=0;entryX=0;entryY=0.5;entryDx=0;entryDy=0;endArrow=none;endFill=0;" edge="1" parent="1" source="TZnY_ZwAf_DfWxbRwsDl-239" target="TZnY_ZwAf_DfWxbRwsDl-245">
          <mxGeometry relative="1" as="geometry" />
        </mxCell>
        <mxCell id="TZnY_ZwAf_DfWxbRwsDl-254" value="2: getSoC(): currentSoC" style="edgeLabel;html=1;align=center;verticalAlign=middle;resizable=0;points=[];labelBackgroundColor=none;" vertex="1" connectable="0" parent="TZnY_ZwAf_DfWxbRwsDl-247">
          <mxGeometry x="0.3897" y="-1" relative="1" as="geometry">
            <mxPoint y="-21" as="offset" />
          </mxGeometry>
        </mxCell>
        <mxCell id="TZnY_ZwAf_DfWxbRwsDl-257" value="&lt;span style=&quot;&quot;&gt;4: [SoC&amp;gt;=pollSoC] drawPower()&lt;/span&gt;" style="edgeLabel;html=1;align=center;verticalAlign=middle;resizable=0;points=[];labelBackgroundColor=none;" vertex="1" connectable="0" parent="TZnY_ZwAf_DfWxbRwsDl-247">
          <mxGeometry x="0.345" relative="1" as="geometry">
            <mxPoint y="10" as="offset" />
          </mxGeometry>
        </mxCell>
        <mxCell id="TZnY_ZwAf_DfWxbRwsDl-239" value="&lt;b&gt;&lt;u&gt;:BatteryPack&lt;/u&gt;&lt;/b&gt;" style="rounded=0;whiteSpace=wrap;html=1;" vertex="1" parent="1">
          <mxGeometry x="210" y="695" width="120" height="60" as="geometry" />
        </mxCell>
        <mxCell id="TZnY_ZwAf_DfWxbRwsDl-240" value="&lt;b&gt;&lt;u&gt;bNo1:Battery&lt;/u&gt;&lt;/b&gt;" style="rounded=0;whiteSpace=wrap;html=1;" vertex="1" parent="1">
          <mxGeometry x="510" y="695" width="120" height="60" as="geometry" />
        </mxCell>
        <mxCell id="TZnY_ZwAf_DfWxbRwsDl-242" value="&lt;font color=&quot;#0070f2&quot; face=&quot;arial&quot; style=&quot;font-size: 16px;&quot;&gt;&lt;b style=&quot;font-size: 16px;&quot;&gt;DrawingPower&lt;/b&gt;&lt;/font&gt;" style="text;html=1;align=left;verticalAlign=middle;resizable=0;points=[];autosize=1;strokeColor=none;fillColor=none;fontSize=12;fontColor=#1d2d3e;fontFamily=Helvetica;" vertex="1" parent="1">
          <mxGeometry x="50" y="600" width="130" height="30" as="geometry" />
        </mxCell>
        <mxCell id="TZnY_ZwAf_DfWxbRwsDl-245" value="&lt;b&gt;&lt;u&gt;bNo2:Battery&lt;/u&gt;&lt;/b&gt;" style="rounded=0;whiteSpace=wrap;html=1;" vertex="1" parent="1">
          <mxGeometry x="510" y="840" width="120" height="60" as="geometry" />
        </mxCell>
        <mxCell id="TZnY_ZwAf_DfWxbRwsDl-248" value="" style="endArrow=block;html=1;rounded=0;endFill=1;" edge="1" parent="1">
          <mxGeometry width="50" height="50" relative="1" as="geometry">
            <mxPoint x="250" y="1080" as="sourcePoint" />
            <mxPoint x="300" y="1080" as="targetPoint" />
          </mxGeometry>
        </mxCell>
        <mxCell id="TZnY_ZwAf_DfWxbRwsDl-252" value="" style="group" vertex="1" connectable="0" parent="1">
          <mxGeometry x="90" y="715" width="71.5" height="10" as="geometry" />
        </mxCell>
        <mxCell id="TZnY_ZwAf_DfWxbRwsDl-244" style="edgeStyle=orthogonalEdgeStyle;rounded=0;orthogonalLoop=1;jettySize=auto;html=1;entryX=0;entryY=0.5;entryDx=0;entryDy=0;endArrow=none;endFill=0;" edge="1" parent="TZnY_ZwAf_DfWxbRwsDl-252" target="TZnY_ZwAf_DfWxbRwsDl-239">
          <mxGeometry relative="1" as="geometry">
            <mxPoint y="10" as="sourcePoint" />
          </mxGeometry>
        </mxCell>
        <mxCell id="TZnY_ZwAf_DfWxbRwsDl-249" value="drawPower()" style="edgeLabel;html=1;align=center;verticalAlign=middle;resizable=0;points=[];labelBackgroundColor=none;" vertex="1" connectable="0" parent="TZnY_ZwAf_DfWxbRwsDl-244">
          <mxGeometry x="0.0611" y="-1" relative="1" as="geometry">
            <mxPoint x="-14" y="-21" as="offset" />
          </mxGeometry>
        </mxCell>
        <mxCell id="TZnY_ZwAf_DfWxbRwsDl-250" value="" style="endArrow=block;html=1;rounded=0;endFill=1;strokeWidth=1;endSize=1;" edge="1" parent="TZnY_ZwAf_DfWxbRwsDl-252">
          <mxGeometry width="50" height="50" relative="1" as="geometry">
            <mxPoint x="21.5" as="sourcePoint" />
            <mxPoint x="71.5" as="targetPoint" />
          </mxGeometry>
        </mxCell>
        <mxCell id="TZnY_ZwAf_DfWxbRwsDl-258" value="" style="group" vertex="1" connectable="0" parent="1">
          <mxGeometry x="380" y="720" width="71.5" height="10" as="geometry" />
        </mxCell>
        <mxCell id="TZnY_ZwAf_DfWxbRwsDl-259" style="edgeStyle=orthogonalEdgeStyle;rounded=0;orthogonalLoop=1;jettySize=auto;html=1;entryX=0;entryY=0.5;entryDx=0;entryDy=0;endArrow=none;endFill=0;" edge="1" parent="TZnY_ZwAf_DfWxbRwsDl-258">
          <mxGeometry relative="1" as="geometry">
            <mxPoint y="10" as="sourcePoint" />
          </mxGeometry>
        </mxCell>
        <mxCell id="TZnY_ZwAf_DfWxbRwsDl-260" value="drawPower()" style="edgeLabel;html=1;align=center;verticalAlign=middle;resizable=0;points=[];labelBackgroundColor=none;" vertex="1" connectable="0" parent="TZnY_ZwAf_DfWxbRwsDl-259">
          <mxGeometry x="0.0611" y="-1" relative="1" as="geometry">
            <mxPoint x="-14" y="-21" as="offset" />
          </mxGeometry>
        </mxCell>
        <mxCell id="TZnY_ZwAf_DfWxbRwsDl-261" value="" style="endArrow=block;html=1;rounded=0;endFill=1;strokeWidth=1;endSize=1;" edge="1" parent="TZnY_ZwAf_DfWxbRwsDl-258">
          <mxGeometry width="50" height="50" relative="1" as="geometry">
            <mxPoint x="21.5" as="sourcePoint" />
            <mxPoint x="71.5" as="targetPoint" />
          </mxGeometry>
        </mxCell>
        <mxCell id="TZnY_ZwAf_DfWxbRwsDl-262" value="" style="group" vertex="1" connectable="0" parent="1">
          <mxGeometry x="380" y="745" width="71.5" height="10" as="geometry" />
        </mxCell>
        <mxCell id="TZnY_ZwAf_DfWxbRwsDl-263" style="edgeStyle=orthogonalEdgeStyle;rounded=0;orthogonalLoop=1;jettySize=auto;html=1;entryX=0;entryY=0.5;entryDx=0;entryDy=0;endArrow=none;endFill=0;" edge="1" parent="TZnY_ZwAf_DfWxbRwsDl-262">
          <mxGeometry relative="1" as="geometry">
            <mxPoint y="10" as="sourcePoint" />
          </mxGeometry>
        </mxCell>
        <mxCell id="TZnY_ZwAf_DfWxbRwsDl-264" value="drawPower()" style="edgeLabel;html=1;align=center;verticalAlign=middle;resizable=0;points=[];labelBackgroundColor=none;" vertex="1" connectable="0" parent="TZnY_ZwAf_DfWxbRwsDl-263">
          <mxGeometry x="0.0611" y="-1" relative="1" as="geometry">
            <mxPoint x="-14" y="-21" as="offset" />
          </mxGeometry>
        </mxCell>
        <mxCell id="TZnY_ZwAf_DfWxbRwsDl-265" value="" style="endArrow=block;html=1;rounded=0;endFill=1;strokeWidth=1;endSize=1;" edge="1" parent="TZnY_ZwAf_DfWxbRwsDl-262">
          <mxGeometry width="50" height="50" relative="1" as="geometry">
            <mxPoint x="21.5" as="sourcePoint" />
            <mxPoint x="71.5" as="targetPoint" />
          </mxGeometry>
        </mxCell>
        <mxCell id="TZnY_ZwAf_DfWxbRwsDl-266" value="" style="group" vertex="1" connectable="0" parent="1">
          <mxGeometry x="370" y="860" width="71.5" height="10" as="geometry" />
        </mxCell>
        <mxCell id="TZnY_ZwAf_DfWxbRwsDl-267" style="edgeStyle=orthogonalEdgeStyle;rounded=0;orthogonalLoop=1;jettySize=auto;html=1;entryX=0;entryY=0.5;entryDx=0;entryDy=0;endArrow=none;endFill=0;" edge="1" parent="TZnY_ZwAf_DfWxbRwsDl-266">
          <mxGeometry relative="1" as="geometry">
            <mxPoint y="10" as="sourcePoint" />
          </mxGeometry>
        </mxCell>
        <mxCell id="TZnY_ZwAf_DfWxbRwsDl-268" value="drawPower()" style="edgeLabel;html=1;align=center;verticalAlign=middle;resizable=0;points=[];labelBackgroundColor=none;" vertex="1" connectable="0" parent="TZnY_ZwAf_DfWxbRwsDl-267">
          <mxGeometry x="0.0611" y="-1" relative="1" as="geometry">
            <mxPoint x="-14" y="-21" as="offset" />
          </mxGeometry>
        </mxCell>
        <mxCell id="TZnY_ZwAf_DfWxbRwsDl-269" value="" style="endArrow=block;html=1;rounded=0;endFill=1;strokeWidth=1;endSize=1;" edge="1" parent="TZnY_ZwAf_DfWxbRwsDl-266">
          <mxGeometry width="50" height="50" relative="1" as="geometry">
            <mxPoint x="21.5" as="sourcePoint" />
            <mxPoint x="71.5" as="targetPoint" />
          </mxGeometry>
        </mxCell>
        <mxCell id="TZnY_ZwAf_DfWxbRwsDl-273" value="" style="group" vertex="1" connectable="0" parent="1">
          <mxGeometry x="370" y="890" width="71.5" height="10" as="geometry" />
        </mxCell>
        <mxCell id="TZnY_ZwAf_DfWxbRwsDl-274" style="edgeStyle=orthogonalEdgeStyle;rounded=0;orthogonalLoop=1;jettySize=auto;html=1;entryX=0;entryY=0.5;entryDx=0;entryDy=0;endArrow=none;endFill=0;" edge="1" parent="TZnY_ZwAf_DfWxbRwsDl-273">
          <mxGeometry relative="1" as="geometry">
            <mxPoint y="10" as="sourcePoint" />
          </mxGeometry>
        </mxCell>
        <mxCell id="TZnY_ZwAf_DfWxbRwsDl-275" value="drawPower()" style="edgeLabel;html=1;align=center;verticalAlign=middle;resizable=0;points=[];labelBackgroundColor=none;" vertex="1" connectable="0" parent="TZnY_ZwAf_DfWxbRwsDl-274">
          <mxGeometry x="0.0611" y="-1" relative="1" as="geometry">
            <mxPoint x="-14" y="-21" as="offset" />
          </mxGeometry>
        </mxCell>
        <mxCell id="TZnY_ZwAf_DfWxbRwsDl-276" value="" style="endArrow=block;html=1;rounded=0;endFill=1;strokeWidth=1;endSize=1;" edge="1" parent="TZnY_ZwAf_DfWxbRwsDl-273">
          <mxGeometry width="50" height="50" relative="1" as="geometry">
            <mxPoint x="21.5" as="sourcePoint" />
            <mxPoint x="71.5" as="targetPoint" />
          </mxGeometry>
        </mxCell>
      </root>
    </mxGraphModel>
  </diagram>
</mxfile>
